<?xml version="1.0" encoding="UTF-8"?>
<svg version="1.1" viewBox="0 0 2048 931" width="2136" height="972" xmlns="http://www.w3.org/2000/svg">
<path transform="translate(1018,1)" d="m0 0h13l26 4 19 5 24 11 14 8 13 10 8 8 8 7 10 12 11 18 9 17 7 19 2 10 10 2 8 3 11 8 10 6 11 12 12 13 8 4 16 6 16 8 8 7 6 7 30 1 10 4 10 6 10 11 7 4 8 3 7 5 6 8 7 3 3 1 3-11 9-13 7-6 8-3 15-1 12 3 11 7 12 11 2 1 15 1 7 3 5 5 1 4v15h180l9 3 5 5 7 10 6 10v2l273 1 17 2 8 3 1 1 1 15v149l1 11 4 8 8 8 8 7 9 10 4 9-1 6-7 10-12 11-9 7-4 8v130l-1 40-1 10-1 2-15 1-73 1-13 1-10 6-3 3-12 3h-10l-9-3-7-8-4-8v-12l-27-1h-82l-1 10 1 6v12l-3 9-4 6-12 9-40 1h-447v12l-3 13-6 5-12 3-20 3-15 2h-21l-6-3-8-6-4-2h-15l-8 5-5 8-3 10-4 10-8 4-14 5-5 2-2 11-8 15-5 4-13 3h-2l-1 4-4 10-2 10-6 12-8 5h-11l-7-3-5-4-5-10-3-9-4-9-1-3-10-3-10-9-3-4-3-14-2-5-16-8-8-7-4-4-4-13-5-8-8-6-5-2h-6l-8 5-7 6-10 3h-17l-15-2-8-1-20-1-6-2-6-7-3-5-3-17-1-2-24-1h-449l-11-1-8-7-6-8-3-8-1-6-1-23h-113v9l-1 10-6 8-6 3-5 1h-9l-9-3-9-9-106-1-2-3-1-12v-173l-4-4-15-9-10-9-3-7v-9l3-7 12-13h2l2-4 10-10 3-7 1-6v-134l2-31 3-7 5-3 260-1 15-1 16-3 2-6 5-8 9-8 11-4 155-1 16-1 4-4 5-12 6-9 9-3 15-2 7-5 5-5 9-6 6-2h19l9 4 9 7 10 14 3 5 7-1 2-3h2l2-4 5-5 13-4 8-4 8-8 8-7 11-5 26-1 6-2 8-9 8-6 12-6 7-3 9-2 10-6 9-8 8-7 9-11 12-7 13-11 9-3 1-6 5-12 11-22 12-17 14-16 12-11 12-9 21-13 18-8 19-6 21-3z" fill="#F6DFBE"/>
<path transform="translate(1018,1)" d="m0 0h13l26 4 19 5 24 11 14 8 13 10 8 8 8 7 10 12 11 18 9 17 7 19 2 10 10 2 8 3 11 8 10 6 11 12 12 13 8 4 16 6 16 8 8 7 6 7 30 1 10 4 10 6 10 11 7 4 8 3 7 5 6 8 7 3 3 1 3-11 9-13 7-6 8-3 15-1 12 3 11 7 12 11 2 1 15 1 7 3 5 5 1 4v15h180l9 3 5 5 7 10 6 10v2l273 1 17 2 8 3 1 1 1 15v149l1 11 4 8 8 8 8 7 9 10 4 9-1 6-7 10-12 11-9 7-4 8v130l-1 40-1 10-1 2-15 1-73 1-13 1-10 6-3 3-12 3h-10l-9-3-7-8-4-8v-12l-27-1h-82l-1 10 1 6v12l-3 9-4 6-12 9-40 1h-447v12l-3 13-6 5-12 3-20 3-15 2h-21l-6-3-8-6-4-2h-15l-8 5-5 8-3 10-4 10-8 4-14 5-5 2-2 11-8 15-5 4-13 3h-2l-1 4-4 10-2 10-6 12-8 5h-11l-7-3-5-4-5-10-3-9-4-9-1-3-10-3-10-9-3-4-3-14-2-5-16-8-8-7-4-4-4-13-5-8-8-6-5-2h-6l-8 5-7 6-10 3h-17l-15-2-8-1-20-1-6-2-6-7-3-5-3-17-1-2-24-1h-449l-11-1-8-7-6-8-3-8-1-6-1-23h-113v9l-1 10-6 8-6 3-5 1h-9l-9-3-9-9-106-1-2-3-1-12v-173l-4-4-15-9-10-9-3-7v-9l3-7 12-13h2l2-4 10-10 3-7 1-6v-134l2-31 3-7 5-3 260-1 15-1 16-3 2-6 5-8 9-8 11-4 155-1 16-1 4-4 5-12 6-9 9-3 15-2 7-5 5-5 9-6 6-2h19l9 4 9 7 10 14 3 5 7-1 2-3h2l2-4 5-5 13-4 8-4 8-8 8-7 11-5 26-1 6-2 8-9 8-6 12-6 7-3 9-2 10-6 9-8 8-7 9-11 12-7 13-11 9-3 1-6 5-12 11-22 12-17 14-16 12-11 12-9 21-13 18-8 19-6 21-3zm-922 330-29 1-2 5-1 41-1 111-7 14-8 10-8 9 1 5 9 10 8 12 3 5 2 23v18l-2 119 1 1 255-1 4-3v-2l4-2v-1l-220 1h-36v-38l1-75-1-26-4-12 2 2 3 11 1 8 1 20v104h227l32-2 12-1-12 9-7 6-5 10-3 14-1 7v9l3 9 4 5 4 2 79 1h583l14 2 7 6 10 13 3 7h3l5-13 6-9 4-4 6-1 50-1h302l320-1 7-3 3-5 1-6v-13l-2-15-4-10-9-12-6-6 14 1 11 1h239l5-2 2-4 3-90 1-38 2-16 6-9 15-15 2-5-6-8-17-17-1-8v-158z" fill="#F6DEBD"/>
<path transform="translate(1007,14)" d="m0 0h34l18 3 20 7 22 11 12 9 14 12 10 10 11 14 10 17 7 17 5 18 4 19 4-5 7-2 6 1 8 7 5 8 1 5 3-4 1-2 11-1v4l-14 6-7 12-5 7-4 10v6l7 10 6 4 4 4 1-9-4-1-3-6-1-5v-12l6-14 5-2h12l5 3 3 5 1 3v9l-1 2 10-2h17l13 4 10 8 8 11 4 10 1 6 8-9 9-4h12l10 4 10 9 7 11 4 7 5-4 2-1h6l5 5v4l-11 1-2-1 4 6 9 8 7 4 4 1h9l3-1h8l4 1 23-7 3-3v-3l-4 1-5 4h-8l-4-5-1-10 4-10 5-5 7-4 4-1h9l9 3 9 7 6 10 2 8v13l-6 9v1l13-1h155l54 1 5 2 5 9v4h-281l-64-1-155-1-10-1h-27l-9 2-36 3-16 6-11 6-1 2 705-1h58l104 1 49 1-1 98v72l3 9 9 10 11 9 10 9 2 3-1 4-5 5-20 16-5 6-3 9v173l-107 1-6 10-5 3h-6l-7-5-3-5v-5l2-2h5v9l1 1h8l6-5 2-7 9-1h94l-1-31v-135l2-9 4-6 7-8 11-9 7-7-1-5-14-12-8-7-6-7-2-5-1-68v-20l1-81-72-1h-1860l-1 5-1 48v19l1 63v30l-3 9-7 9-13 13-10 7 2 4 14 13 8 7 7 9 2 6v43l-1 124 3 1 93 1 6 3 5 9 1 1h6l1-1 1-10 4 1 3 5v7l-3 3-3 1h-9l-6-7-4-5-103-1-2-1 1-172-3-9-4-5-8-7-13-10-5-5 1-7 7-7 11-9 8-10 4-8 1-5v-118l1-51h917v-3l-10-3-20-9-8-3v2l-7 1-13-2h-256l-24 1h-277l1-5 8-11h223l5 1-7-12-1-15 3-9 9-10 10-5 11-1 9 2 6 5 5 10 1 11-3 8-6 6-6 1-8-5-3-5v-7l3-4 4-1 5 3 2 3v4l-3 1-4-4h-2l2 7 3 2h5l5-6v-9l-3-9-4-5-6-2h-9l-8 3-6 4-5 7-1 4v10l4 11 6 8 9 6 6 1h18l12-3 5-4 10-6 9-3 14-9 6-4 1-3h-6l-6-4-1-3 2-4 3-2h6l6 3h2l10-15 9-9 9-4h17l8 4 7 5 3-9 7-11 8-8 8-4 8-2h26v-9l5-8 5-4h8l7 3 3 3v3l-11-3-8 1-4 6v6l5 5 11 9 6 7 1 4 10-4 2-2 4 1v6l-13 5-1 18v3l9-5 7-2h13l10 3 10 6-6-7-11-12-13-11-3-7-3-2v-7l-3-13-5-8-7-10-12-8-1-3 7 1 5 4 3 1 1-6 6-9 6-5 8 1 7 3 3-17 3-9 8-20 8-14 12-17 12-13 13-11 13-9 16-9 23-9 17-4z" fill="#050304"/>
<path transform="translate(1010,33)" d="m0 0h27l18 3 16 5 19 10 11 8 10 8 14 14 12 18 8 16 7 18 3 17 1 10v25l-4 17-6 15-8 15-11 17-9 12-9 10-14 11-21 12-17 6-20 4h-27l-18-3-16-5-16-8-14-9-12-11-12-12-11-16-9-14-5-13-5-21-2-18v-20l3-19 5-16 8-16 13-19 12-14 12-10 15-9 25-12 19-5z" fill="#F7DFBE"/>
<path transform="translate(96,331)" d="m0 0h1888v158l1 8 17 17 6 8-2 5-16 16-5 8-2 16-3 97-1 31-3 5-4 1h-239l-19-2h-6l8 8 9 14 3 10 1 11v13l-2 8-5 5-4 1-320 1h-302l-50 1-7 2-7 8-5 11-2 6-4-1-4-9-10-12-5-4-14-2h-583l-79-1-6-4-4-8-1-4v-9l3-17 4-11 6-7 15-11-23 2-21 1h-227v-104l-1-20-2-12-3-9v2l3 10 1 27-1 74v38h36l220-1-2 3h-2l-2 4-2 1-255 1-1-1 2-119v-18l-2-23-3-5-9-13-9-10 1-5 7-8 8-10 7-14 1-111 1-41 2-5zm271 6-283 1-13 1v124l-2 26-2 9-12 14-9 9 1 5 12 14 9 12 4 6 2 12 1 15 1 34 1 78h47l120-1 61-1 21-1h31l13 2 4 1 2 7-5-4-8-2h-9l-7 3-8 7-9 8-6 10-2 8-1 18 2 9 3 3h18l18-1 670 1 681-1 8-1 2-3v-22l-3-12-4-8-8-9-9-7-5-2h-15l-10 4-5 6-4 10v12l6 8 8 4h15l7-4 5-10v-8l-10-8-4-2-7 1-8 6 1 7 5 5 6 1 3-2 2-9 5-1-2 8-5 6-2 1h-9l-5-4-2-4v-10l2-6 10-3 10 1 9 6 4 6 1 8-4 10-6 7-5 2-138 1h-1114l-77-1-9-3-5-5-4-9v-13l4-6 10-4h11l7 5 1 2v11l-4 6-2 2-7 1-5-3-3-7v-6h6v8l2 2 7-1 2-2v-9l-5-5-6-1-8 2-6 5-1 3v9l3 7 5 5 6 2h13l6-3 6-8 2-5v-14l-5-12-2-3-2-9-5-4-5-1-58-2v-4h67l4-4 1-4 5 2 12 10 1 3-7 1-9 8 4 11 3 11v11l-4 8-5 6 1 2h1254l27-1-6-7-3-5v-11l6-15v-9l-13-12-2-4 16-9 2 3 2 6 68 1v4h-46l-18 1-2 1-3 11 1 4 10-6 5-1h46l7 2h239l1-1 1-63 2-37 1-32 2-13 6-10 8-9v-2l4-2 3-4-1-4-12-10-5-5-4-7-2-33v-33l2-93-49-1z" fill="#050304"/>
<path transform="translate(391,401)" d="m0 0h53l18 2 10 4 12 7 12 11 7 10 7 15 5 16 3 24v19l-4 23-7 20-7 13-9 10-9 8-10 6-12 4-5 1h-70l2-5 7-7 3-6 1-50v-81l-1-23-3-7-7-8-2-5z" fill="#050304"/>
<path transform="translate(1812,402)" d="m0 0h62l2 1-2 5-9 9-4 9-1 56 42-1 1-22v-33l-2-9-6-9-5-4v-2h56l6 1-2 4-8 8-3 5-1 5v168l6 10 5 5v2l-32-2-22-2-5-2 2-4 7-6 3-8 1-16v-64l-43-1 1 77 6 10 9 9v1h-15l-39-2-7-3 2-4 5-5 3-7 1-6v-153l-3-7-10-8z" fill="#050304"/>
<path transform="translate(1015,41)" d="m0 0h11l11 4 10 9 4 5 4 10v14l-5 9-5 5-8 7-3 5 1 3 6 2 18 2 2-4 6-1 6 3 4 5v8l-4 7-7 3-5-1-3-1-20-1-4 1v25l2 31 2 23 4 20 4 6 5 2h9l11-4 9-7 6-7 1-2-5-1-9-5 2-4 11-12 12-17 5-11 4 1 5 12 3 12 1 7v14l-2 19-2 1-6-9-7-4-3 9-7 11-9 10-9 7-25 12-14 9-6 7-3 1-9-7-11-9-17-10-14-9-5-4-10-13-5-11-2-3-7 8-7 3-3-4-1-9v-10l3-19 4-13 6-9 2 1 4 11 5 9 11 13 8 8 1 4-9 3-9-2 5 6 8 7 9 8 11 3 7-1 6-2 4-17 3-37 1-55-21 1-8 2-7 1-4-2-3-6 1-11 4-5h9l3 2 14-1h12l-3-5-12-13-5-7-3-10 1-13 5-10 10-9z" fill="#050304"/>
<path transform="translate(1293,402)" d="m0 0h44l2 6 6 27 13 48 11 47 7 29 4 12 8 14 4 5 3 2v2h-60l-1-4 7-10-2-19-1-6h-40l-3 27-4-4v-14l2-12 2-3 40-1v-3l-4-1h-41l-2 7-3 17v7l3 8 8 9v2h-45l-7-1v10h-112l1-4 108-1 1-74 4 1v65l5-4 8-11 5-15 15-62 18-73 1-4v-7l-5-10z" fill="#050304"/>
<path transform="translate(636,401)" d="m0 0h12l7 1 7 10 9 16 13 24 10 16 12 22 1 3h2l-2-19v-48l-2-8-7-8-6-7v-1h49l1 2-9 14-2 4-1 8v135l-1 33-1 1h-7l-6-7-13-25-9-16-11-23-18-34-14-25-4-6-2-1 1 39 1 70 4 10 9 11v3h-41l-9-1 2-4 9-11 2-7 1-36v-101l-2-15-6-10-6-6v-2z" fill="#050304"/>
<path transform="translate(1538,402)" d="m0 0h46l4 5 11 19 7 14 10 19 15 27 4 7h1l-1-11v-62l-7-10-6-5v-3h48l1 3-8 10-4 10-1 42-1 127-1 2-8 1-7-9-13-26-10-19-8-15-8-16-14-25-6-10-7-15-2-1 1 2v96l1 13 4 10 8 10 2 3h-41l-10-1v-4l12-12 1-2 1-25v-128l-4-8-7-6-5-5z" fill="#050304"/>
<path transform="translate(981,775)" d="m0 0 13 1 7 4 12 11 7 7v8l-1 7 2 12 5 3v3l-13 1-4-6-5-1-3 1 1-5 6-4 4-6v-2h-3l-2-3-9-2h-11l-5 2 1-3 7-3h10l8 3 8 4-4-6-8-7-10-3h-8l-8 3-6 7-2 6v15l3 9 6 8 8 5 8 1h11l7 3 3 2-4-6-8-6-5-3-3-4v-3l4-1 3 3 9 6 3 3v2l6 3v2l5-5 1-15 2-3-1-4-2-2 1-17 6-11 6-7 8-5 9-2 14 1 15 4 9 4 6 8 3 8 9-2 13-5 5-2v-2l-28-1-5-4 13-1 106-1 7 3 4 6-1 7-5 6-4 2h-7l-5-4-4 2-10 7-7 2h-9l-10-3-14-8-14-9-4 1-25 13-15 8-10 4-2 6-3 12-11 8h-2l-1 7v12l-4 6-4 3-4 1h-10l-9-4-2-1 2 6 3 5v9h-3l-5-10-2-3 1-5 1-4-4-6-1-6h-2v5l-10 10-5 3-6 1h-8l-5-3-4-7 1-6v-9l-12-8-5-4-6-4-1-2-1-13-27-14-12-7-6-5-6 1-10 8-13 8-10 4-7 1-10-2-9-5-4-3-5 1-7 1-9-3-4-6v-8l3-5 4-2h119l15-4 10-2z" fill="#050304"/>
<path transform="translate(275,402)" d="m0 0h43l3 1 6 24 9 38 10 43 16 64 5 12 7 6 1 4-62 1-1-2 7-8 3-4v-14l-2-11h-36l-2 1-3 18-1 10-4-2-1-2v-10l3-19 1-1h42l-1-4-19-1h-26l-4 11-2 10v13l4 6 8 7v2h-48l-2-1 1-3 8-7 6-10 4-15 10-44 13-51 7-28 2-10v-12l-5-8z" fill="#050304"/>
<path transform="translate(827,398)" d="m0 0h11l14 2 15 5 6 4v38l-2 13-3-3-4-10-7-11-7-8-9-5-4-1h-10l-8 4-6 5-7 10-5 12-3 17-1 10v41l3 24 5 16 6 9 7 4h12l7-3 4-5 3-11v-38l-2-10-8-10-2-5h38l20 2 2 2-9 11-3 9v83l-9-6-5-3-6 1-13 6-12 3h-16l-13-3-10-5-12-11-8-9-8-14-5-13-4-17-2-21v-15l2-16 5-19 6-15 10-16 9-10 9-8 9-5 13-4z" fill="#050304"/>
<path transform="translate(107,373)" d="m0 0h65l-1 4-7 8-5 10-1 65v62l1 81h10l12-3 9-7 8-13 10-23 6-17 3-3 2 6v13l-2 43-1 31-44 1h-63l-5-2 3-5 6-7 5-11 2-13 1-31v-161l-4-11-8-11-3-5z" fill="#050304"/>
<path transform="translate(1010,423)" d="m0 0h13l16 3 8 4 1 3-1 16v16l-5-4-9-13-6-3-4-1h-9l-8 5-4 9 2 10 8 16 12 16 11 18 4 6h1v-13l-9-10-3-3v-2l4-1h32l12 2 1 3-2 5-10 5-1 3-2 18-4 13-2 2 1 7 11 19 9 11 2 4h-35l-7-2-2 4-9 7-12 3h-20l-10-2-5-3-1-3 11 2h23l13-4 9-7 1-3-1-4-4 2-7 7-9 4-5 1h-18l-13-3-11-8-9-12-5-12-2-11 1-12 4-11 7-11 15-15 3-2-1-6-4-10-2-8v-11l3-12 5-8 4-5 10-6z" fill="#050304"/>
<path transform="translate(1391,402)" d="m0 0h58l-1 6-7 11-1 3v124l3 12 6 9 4 3 5 1h10l10-3 6-4 6-9 1-31v-86l-1-15-3-6-9-11-2-4h48l-1 5-6 8-2 7-1 15v112l-2 14-4 10-6 9-10 8-8 4-11 3-10 1h-9l-14-2-12-6-10-8-8-9-5-14-1-11v-114l-1-13-2-5-6-7-4-3z" fill="#050304"/>
<path transform="translate(1e3 21)" d="m0 0h37l17 3 17 6 16 7 11 7 13 10 12 11 11 13 7 11 8 14 7 19 5 21 2 18v23l-4 20-6 18-10 19-8 12-13 16-12 11-17 13-10 6-15 8-10 3-27 3h-29l-17-2-16-4-22-11-12-8-13-10-14-14-11-14-7-11-9-22-7-33-1-6v-26l4-23 6-20 8-16 7-11 11-12 7-8 16-13 13-9 16-8 17-6 16-4zm5 12-17 3-15 5-24 12-15 10-11 10-9 11-13 19-8 16-5 16-3 19v20l3 23 5 19 5 11 6 10 8 12 8 10 17 17 13 9 18 10 15 5 14 3 8 1h27l20-4 17-6 16-9 13-9 11-10 11-14 11-17 8-14 7-16 4-14 1-6v-25l-3-23-6-17-6-14-9-15-9-12-15-15-15-11-16-9-11-5-21-5-8-1z" fill="#F7DFBE"/>
<path transform="translate(1145,365)" d="m0 0h26l14 1 3 2-1 5-8 13-1 22v162h14l9-2 8-6 7-8 8-16 6-16 2-5h3l1 4-1 72h-100l-8-1 2-4 4-5 5-5 3-4 1-4v-180l-1-8-9-11-2-5z" fill="#050304"/>
<path transform="translate(1749,398)" d="m0 0h21l15 3 10 5 1 9-1 30-1 15-3-3-7-18-8-11-5-5-5-2h-11l-10 5-7 8-7 14-3 9-3 18-1 14v15l2 25 5 21 6 10 7 8 8 4 10 1 10-2 9-6 7-9 3-5 2-5 4-1 2 2 1 10-3 14-4 8-9 10-10 7-12 3h-12l-12-2-16-8-14-14-9-14-7-16-5-20-2-25 1-17 4-20 7-19 9-16 11-12 9-8 12-7z" fill="#050304"/>
<path transform="translate(894,343)" d="m0 0 1081 1 2 2v5l-2-2h-1817l-84-1-1-3 1-1z" fill="#050304"/>
<path transform="translate(531,402)" d="m0 0 64 1-3 5-8 9-3 6v150l6 11 8 9v1l-7 1h-50l-8-2 2-4 4-3h2l2-4 3-4 1-3 1-75v-50l-1-26-2-7-5-5-7-8z" fill="#050304"/>
<path transform="translate(432,424)" d="m0 0h14l11 2 11 9 5 8 5 15 3 16 1 9v25l-3 22-4 16-5 9-9 10-10 5-13 2h-6z" fill="#F7DFBE"/>
<path transform="translate(1242,197)" d="m0 0h18l12 6 8 8 6 10 2 5 1 12-1 5 4-4 3-6 10-7 9-3h9l10 5 7 8 7 16v11l-5 10-5 4-6 2h-26l-7-1 7 4h43l6-1h19l-7-3-11-2-6 1-7 2 1-3 5-5 3-8 1-7 5 2 7 8 8 7 11 5 12 3 8 4 1 2h-185l-22-1v-2l6-2 6-4-1-7 3 1 1 6 8 2 6 3 14 1 23-3 7-2 12-2 8-2h5l-3-7-2-1-2 5-5 3-7 2 2-5 4-4h2l2-4 4-4 6-14 7-8 10-4h15l9 5-5-6-8-3h-12l-10 4-7 6-5 7-6 12-9 11-5 4-7 4-3-1 10-8 8-9 7-13-2-18-3-9-9-10-8-4h-17l-11 4-5 5-2 4v11l4 8 7 1 5-4h2l1-8 4 2 4 6v10l-5 7-5 2h-12l-10-4-8-7-4-9-1-12 3-8 7-8 14-7z" fill="#F6DEBD"/>
<path transform="translate(394,732)" d="m0 0h1260l1 2-1 2-3 1-30 1h-782l-445-1-1-4z" fill="#050304"/>
<path transform="translate(791,198)" d="m0 0h19l9 2 11 8 6 10v19l-3 8-6 5-11 3h-11l-7-3-4-5-1-2v-11l3-5 3-2h6l1-2-2-1h-8l-5 5-3 9 1 9 7 8 9 3h9l14-3 6-3 3-2-1 11-4 9-5 6-7 4-4 1h-12l-10-3-11-6-10-10-4-8-1-4v-17l3-10 6-8 8-4h16l9 3 4 5 1 2v7l-3 8-5 2-7 1 4 1h8l4-4 2-7v-10l-4-6-8-4-7-1h-11l-9 2-6 4-5 7-3 10-1 20h-3l-2-5v-15l2-9 6-10 8-7 11-4z" fill="#F6DEBD"/>
<path transform="translate(1007,29)" d="m0 0h31l22 4 18 7 18 10 13 10 12 11 9 9 10 14 10 19 8 22 3 17 1 24-3 19-6 18-12 25-10 14-11 13-14 14-18 13-15 8-13 4-19 3-28 1-19-2-15-4-16-7-18-11-13-11-12-12-9-11-10-15-7-15-5-17-3-15-1-8v-29l4-20 6-17 8-16 9-13 13-15 8-8 15-10 22-12 11-5 18-5zm3 4-17 3-15 5-24 12-15 10-11 10-9 11-13 19-8 16-5 16-3 19v20l3 23 5 19 5 11 6 10 8 12 8 10 17 17 13 9 18 10 15 5 14 3 8 1h27l20-4 17-6 16-9 13-9 11-10 11-14 11-17 8-14 7-16 4-14 1-6v-25l-3-23-6-17-6-14-9-15-9-12-15-15-15-11-16-9-11-5-21-5-8-1z" fill="#050304"/>
<path transform="translate(1254,208)" d="m0 0 11 2 8 5 6 10 2 9v10l-4 10-7 10-8 7-11 6-14 2-11-1-8-5-6-10-2-6v-9l2-1 14 7 8 2h9l9-3 6-7 1-3v-8l-3-9-5-2-5 1-3 2-1 1v5l-4 2-6-5-1-9 3-5 6-5z" fill="#F7DFBE"/>
<path transform="translate(636,647)" d="m0 0h30l8 3 7 5 5 8 2 7v12l-3 10-7 9-6 4-3 1-19 1h-12l2-7v-42l-2-5-2-3z" fill="#050304"/>
<path transform="translate(1175,241)" d="m0 0h10l7 3 8 6 4 4 3 14-1 5-12 12-2 1h-6l-10-6-9-4-19-1-1 3-5 5-1 3-5 5h-9l-8-2 2-4h2l2-4 9-11 12-13 9-9 16-6z" fill="#F5DEBD"/>
<path transform="translate(1038,647)" d="m0 0h16l6 23 2 8 2-1 8-25 2-5h20l-2 5-1 2-1 13v13l1 20 2 6-1 1h-17l2-26v-15l-6 15-5 17-5 9-3-1-5-14-9-27v12l2 21 2 8h-14l2-5 1-7-1-37-5-9z" fill="#050304"/>
<path transform="translate(861,241)" d="m0 0h12l10 4 11 7 16 17 9 11 6 7 3 3-3 1h-12l-10-3h-23l-11-1 1-4 5-5 4-5 5-2 2-4 6 1 10 8 4 6 7 4h5l-8-6-7-8-9-8-8-6-15-4h-9l-1 13-2 5 5-2 7-4 4-1-12 1 1-5 2-3h10l10 4 1 3-12 7h-2v2l-10 10-6 1-5-3-4-5-7-5-5-1 3-4 4-16 7-6z" fill="#F6DEBE"/>
<path transform="translate(1166,647)" d="m0 0h27l9 1 7 6 4 8 1 6-6 7-4 4 2 9 7 14 2 3v3l-13-1-5-5-8-18h-5v8l3 14-18 1-1-3 1-3v-46l-3-6z" fill="#050304"/>
<path transform="translate(725,234)" d="m0 0h10l7 4 9 10 4 8v10l-8 10-5 3-4 1h-19l-8-2-5-3-6-8-3-6 1-7 4-7 13-9z" fill="#F7DFBE"/>
<path transform="translate(1242,197)" d="m0 0h18l12 6 8 8 6 10 2 5 1 12-1 5 4-4 3-6 10-7 9-3h9l5 2v2h-2v2l-14 1-10 4-7 6-5 7-6 12-9 11-5 4-7 4-3-1 10-8 8-9 7-13-2-18-3-9-9-10-8-4h-17l-11 4-5 5-2 4v11l4 8 7 1 5-4h2l1-8 4 2 4 6v10l-5 7-5 2h-12l-10-4-8-7-4-9-1-12 3-8 7-8 14-7z" fill="#F7DFBE"/>
<path transform="translate(986,790)" d="m0 0h8l10 3 10 9 2 5-4-1-8-4-4-1h-10l-7 3 4-1h11l9 2 3 3 3 1-2 5-4 5-5 2v4l6-1 4 4 1 3 15-1-1 11-4 5h-2v-2l-4-2-5-5-9-6-4-3h-3l3 6 5 3 8 6 4 5v2l-4-2-6-2h-16l-8-4-5-4-6-9-2-7v-15l3-7 6-7z" fill="#F5DDBC"/>
<path transform="translate(1431,234)" d="m0 0h11l10 6 6 8 2 4v14l-5 10-4 5-9 5-8 2h-17l-8-2-9-6-4-2 1-2 6-2 25-4 5-3 4-7v-7l-6 1-6 5h-6l-3-4v-8l5-8z" fill="#F7DFBE"/>
<path transform="translate(1981,696)" d="m0 0 2 4v13l-1 1-47 1h-56l-151-1-2-5 4-1 58-1 189-1z" fill="#050304"/>
<path transform="translate(1052,793)" d="m0 0h11l7 4 5 6 2 5v15l-4 11-9 8-9 5-4 1h-22v-5l4-5 16-6v-2h-9l-3 1h-7l1-4 7-4 11-2 3-1v-2l-9 4h-5l-1-3 8-11 2-3-5 4h-4l2-6 4-6z" fill="#F6DEBD"/>
<path transform="translate(508,433)" d="m0 0 5 4 8 14 7 23 2 16v15l-1 16-4 20-8 20-6 11-8 10-9 8-12 7-13 5-10 2-44 1h-93l-7-1v-3l101-1 37-1 15-3 16-8 11-9 7-7 9-16 6-15 4-14 2-13v-30l-2-13-5-19-6-14z" fill="#050304"/>
<path transform="translate(1347,647)" d="m0 0h14l4 5 12 17 5 6 2 1-1-18-3-6-2-2v-3h17l1 3-4 4-1 53-4 1-9-11-11-16-7-10-1-1-1 3v28l2 6h-10l-1-53-2-4z" fill="#050304"/>
<path transform="translate(755,647)" d="m0 0h23l1 1 1 17-2-1v-2l-3-1-4-4-9-2-7 3-4 6-1 3v20l4 11 3 1h11l-2-15-2-6 4-1h17l1 2-3 4-1 14-3 7-11 4h-14l-9-4-7-8-3-8-1-6v-8l3-12 6-8 9-6z" fill="#050304"/>
<path transform="translate(1109,647)" d="m0 0h39l2 3v11l-3 2-7-6-12-1v15l14-1-1 15-4-2-8-2-3 6 1 10 6 2h9l5-5 5-1v7l-2 7h-39v-49l-2-7z" fill="#050304"/>
<path transform="translate(1534,408)" d="m0 0h3l-2 5-6 7-3 7v126l-2 16-5 12-7 9-10 8-14 7-15 3h-20l-11-4-2-2 19 1 20-3 13-5 11-7 8-9 6-12 2-12v-116l1-13 4-10 8-7z" fill="#050304"/>
<path transform="translate(488,416)" d="m0 0 7 6 6 4 2 3 5 5 5 8 5 13 5 20 1 9v30l-3 17-7 21-9 17-9 10-9 8-14 8-13 4-56 1v-1l8-2-17-1v-1l55-1 17-4 12-6 11-9 7-7 8-14 7-19 4-18 1-8v-19l-3-24-7-21-8-15-11-12z" fill="#FCF7EF"/>
<path transform="translate(1352,256)" d="m0 0 5 2 7 8 8 7 11 5 12 3 8 4 1 2h-185l-22-1v-2l6-2 6-4-1-7 3 1 1 6 8 2 6 3 14 1 23-3 7-2 12-2 8-2h5l6 5 4 2h43l6-1h19l-7-3-11-2-6 1-7 2 1-3 5-5 3-8z" fill="#F5DDBD"/>
<path transform="translate(521,646)" d="m0 0 39 1 1 1 2 16-6-4-4-3-4-1h-8l-2 1v14l9-1 3-3 2 2v13l-1 2-6-2-5-1-1 2-1 17 15-1 6-4 4-2 1 4-1 8-1 1-40 2 1-9v-36l-1-10-2-4z" fill="#050304"/>
<path transform="translate(1304,645)" d="m0 0h5l3 3 13 38 10 20-4 1h-18l2-2v-7l-3-4-16-1-2 1v8l1 5h-13l1-4 4-8 4-13 7-21 3-13z" fill="#050304"/>
<path transform="translate(994,509)" d="m0 0 3 1 8 16 11 19 4 8v7l-4 5-5 2h-10l-8-3-8-8-4-8-1-5v-9l5-14 7-9z" fill="#F7E0C0"/>
<path transform="translate(447,647)" d="m0 0h22l5 2-1 13h-3l-9-8h-7l-1 1v8l6 5 12 7 5 5 3 6-1 8-5 8-5 4-2 1h-16l-9-1-3-3v-13h4l5 8 4 2h11l2-2v-8l-10-6-13-8-4-7v-10l3-6z" fill="#050304"/>
<path transform="translate(296,451)" d="m0 0 2 1 4 17 4 15 8 37-4 2h-31l-1-4 10-41 7-26z" fill="#FCF6ED"/>
<path transform="translate(906,647)" d="m0 0h8l2 2 10 29 8 20 3 6v2l-10 1h-9l-1-3 2-5-1-5-8-1h-12l-1 8v6l-10-1-1-3 10-23 7-22z" fill="#050304"/>
<path transform="translate(1559,647)" d="m0 0h40v15h-3l-2-4-4-2h-13v16l8-2 2-2 4 1v15l-6-2-2-1h-6v17l1 1h9l9-2 3-4h3v14h-40l1-10-1-44-3-4z" fill="#050304"/>
<path transform="translate(1311,449)" d="m0 0 3 1 3 17 13 53v1l-21 1h-13l-1-1 1-12 8-34z" fill="#FCF8F1"/>
<path transform="translate(690,259)" d="m0 0 3 1 8 14-3 3-17 3-9 2h13l23-1 4 1h30l5-3 7-7 2-7 6 5 5 5 8 4 25 4 15 1 1 2-15 1h-157v-2l9-2 12-4 17-12z" fill="#F6DFBE"/>
<path transform="translate(607,402)" d="m0 0 1 2 4 2 1 3-7 2v-2h-5v2l-9 6-4 7-1 7v143l4 7 1 3h-2l4 7-4-2-7-10-3-6v-150l6-10 7-7 1-2 4 1 5 1z" fill="#FDFAF6"/>
<path transform="translate(1183,380)" d="m0 0 4 1-2 12-1 172h8l5 4-5 2h-12l-2-1-1-93v-72l1-19 3-5z" fill="#FBF2E6"/>
<path transform="translate(1950,406)" d="m0 0 5 2-2 5-5 5-3 6-1 33v135l3 6 7 8v2h-6l-8-9-3-6v-168l2-7 9-10z" fill="#FCF7EE"/>
<path transform="translate(1671,407)" d="m0 0 4 1 2 2-8 7-3 6-1 8-1 41v79l-1 46-1 5-3-1-3-4 1-130 1-42 4-10 5-6h3z" fill="#FBF0E2"/>
<path transform="translate(1250,646)" d="m0 0h15l4 1v18l-4-2-6-7h-9l-4 4-3 6-1 12 2 11 3 6 6 4h11l8-6 1 2-3 6-7 6-10 2-10-3-10-9-5-8-2-8v-8l3-9 5-9 7-6z" fill="#050304"/>
<path transform="translate(833,647)" d="m0 0h46l2 6 1 10-5-2-5-3-9-2 1 45 1 6-16 1-1-2 1-3v-46h-10l-4 6-3 1v-16z" fill="#050304"/>
<path transform="translate(1755,420)" d="m0 0h11l5 2 7 7-1 3-10-5-10 1-8 4-7 8-6 13-4 17-1 11v30l3 26 5 15 6 8v3l3 1 4 6v2l-5-1-9-8-7-11-4-13-3-18-1-17v-15l2-21 3-15 7-16 7-9 8-6z" fill="#FCF5EB"/>
<path transform="translate(1414,647)" d="m0 0h40l2 3 1 15-4-2-7-6-6-1-1 5v39l1 7-3 1h-13v-3l1-4v-42l-1-1h-10l-4 4h-3v-9l1-5z" fill="#050304"/>
<path transform="translate(828,787)" d="m0 0h78l-1 3-17 12-12 6-9 1-10-2-8-6-4-4-5 1-5 3-7-2-2-3v-6z" fill="#F7DFBE"/>
<path transform="translate(827,421)" d="m0 0h10l10 4 6 5 1 3h-2v-2l-12-3h-9l-8 3-6 5-8 14-3 9-2 12-1 17v37l3 21 5 13 6 9 12 6h-13l-6-4-6-9-5-16-3-24v-41l3-23 4-12 7-11 6-7 8-5z" fill="#FBF4E8"/>
<path transform="translate(178,380)" d="m0 0 5 1 1 4-10 6-3 5-1 5-1 196-4 1-1-1v-194l2-11 4-7z" fill="#050304"/>
<path transform="translate(1140,787)" d="m0 0h75l5 3 1 7-3 3-5 1-5-5-1-5-3 3-4 6-8 6-5 2h-15l-12-5-13-9-7-5z" fill="#F7DFBE"/>
<path transform="translate(1017,132)" d="m0 0 3 1 1 14v108l-2 6-4-3v-2h-10l-11-2-12-5-9-5-10-9-6-8-2-4 4 2 8 9 14 10 9 3h10l8-3 3-5 3-25 1-27 1-54z" fill="#F7DFBF"/>
<path transform="translate(1184,150)" d="m0 0 8 1 7 8 2 6-3 7-7 11-6 15-6 12-6 10-7 6-2-1 4-8 5-31 2-23 3-7 4-5z" fill="#F2DABA"/>
<path transform="translate(856,148)" d="m0 0h6l7 5 2 6v21l6 35 1 6-5-3-10-8-3-12-3-14-6-10-5-7 2-9 6-8z" fill="#F6DFBE"/>
<path transform="translate(1341,406)" d="m0 0 4 3 17 69 10 38 9 39 6 18 7 11v2l-5 1-6-9-6-12-7-27-8-35-9-36-7-25-6-26-1-9z" fill="#FCF6EC"/>
<path transform="translate(950,647)" d="m0 0h19l1 2-3 3v39l1 7 13-2 6-5h3v10l-1 5h-39l2-16v-34l-3-6z" fill="#050304"/>
<path transform="translate(322,407)" d="m0 0h4v3h2l8 31 16 68 13 51 5 15 5 9 1 4-1 2-5-2-5-6-5-14-12-48-8-33-14-60-4-17z" fill="#FCF5EC"/>
<path transform="translate(644,462)" d="m0 0 4 2 14 25 11 20-1 3-8-13-7-1-2-8-1-3h-2l1 85 6 14-2 1 2 4-4-2-7-10-3-8-1-70z" fill="#F7E0C0"/>
<path transform="translate(222,556)" d="m0 0h1v39l5-1h32l24 1 1 4-10 1h-25l-19 1v4l-3 3-2-7-4-1v35l-1 1h-20l-32-1-7-1-36-1v-1l36-1 10-1h44v-31l1-19 2-21h2z" fill="#FCF6EE"/>
<path transform="translate(1504,647)" d="m0 0h20l1 2-2 8v33l1 8 1 1h10l5-2 5-6 3-1 1 2-4 14-6 1h-32l-1-2 2-7v-45l-4-4z" fill="#050304"/>
<path transform="translate(749,410)" d="m0 0h4l-1 4-10 10-1 4v159l-1 21h-15l-2-2 11-3 1-20 1-160 7-8z" fill="#050304"/>
<path transform="translate(1676,410)" d="m0 0h5l-1 5-8 6-2 4-1 35v72l-1 72-1 3-2 1h-9v-3l5-3 1-5 1-46v-79l1-41 2-10 4-6z" fill="#050304"/>
<path transform="translate(160,401)" d="m0 0 3 4v186 4 3h7l-2 1 1 3-3 1h-8l-1-81v-62l1-26h1z" fill="#FCF7EE"/>
<path transform="translate(1198,372)" d="m0 0 3 1-1 6-8 7-2 6-1 173h-5v-172l2-9 9-10z" fill="#050304"/>
<path transform="translate(1676,700)" d="m0 0 5 1 2 5-10 4h-2l-2 6v10l4 6 3 2h9l6-5 2-4 1-6-5 1-2 9-3 2-6-1-6-7v-5l8-6 7-1 11 7 3 3v8l-5 10-7 4h-15l-8-4-6-8v-12l4-10 5-6z" fill="#F7DFBF"/>
<path transform="translate(1959,409)" d="m0 0 2 1-1 4-8 7-2 4-1 18v153l3 5-1 2-7-8-1-3v-135l1-33 4-8 8-6z" fill="#050304"/>
<path transform="translate(579,283)" d="m0 0h13l6 4v1h-237v-3l1-1z" fill="#F7DFBE"/>
<path transform="translate(1573,461)" d="m0 0 3 1 10 21 7 11 4 7-1 4-3-5v-2h-6l-1-2-1-10-4-1v83l3 10 4 7 1 8-4-2-8-11-3-8-1-13z" fill="#F7DFBF"/>
<path transform="translate(1458,281)" d="m0 0 2 1 26 1h160l36 1 2 1v2l-138 1h-90l-4-2z" fill="#F7DFBE"/>
<path transform="translate(797,647)" d="m0 0h19l3 1-2 7-1 21v15l1 10 2 6h-20l3-9-1-44z" fill="#050304"/>
<path transform="translate(327,407)" d="m0 0 4 1 4 11 6 23 13 55 15 60 4 13 2 7v5l-5-5-4-10-13-50-13-54-9-38-4-15z" fill="#050304"/>
<path transform="translate(1761,426)" d="m0 0h6l6 4v1l-12 2-9 6-6 7-6 15-3 18v42l3 21 3 11 2 7-5-5-4-8-3-10-3-26v-30l2-16 4-15 7-13 9-8z" fill="#050304"/>
<path transform="translate(831,427)" d="m0 0h9l8 3 1 2-16 1-9 6-6 8-6 12-3 16-1 18v36l2 18 4 11 4 8h-3l-6-9-4-11-3-21v-37l1-17 3-16 8-16 7-8 6-3z" fill="#050304"/>
<path transform="translate(1490,647)" d="m0 0 2 1-1 3-3 3-1 2-1 18v19l2 9 1 4-18 1-1-2 1-2 1-9v-32l-1-9-3-3v-2z" fill="#050304"/>
<path transform="translate(1860,505)" d="m0 0h43v6h-28l-7 2v70l4 7-1 4 4 4-4-1-8-9-3-6z" fill="#F7DFBE"/>
<path transform="translate(1344,406)" d="m0 0 4 2 5 18 10 38 8 31 6 22 13 52 4 11-1 4-7-11-6-18-10-43-11-43-15-60z" fill="#050304"/>
<path transform="translate(700,647)" d="m0 0h21v3l-2 2-1 4v45l2 6h-19l1-5 2-5v-41l-4-6z" fill="#050304"/>
<path transform="translate(601,410)" d="m0 0h4l-2 5-8 9-3 7-1 148-5-5v-143l2-9 6-8z" fill="#050304"/>
<path transform="translate(1456,410)" d="m0 0h5v5l-7 8-3 8 1 125 2 7-4-2-3-6-1-5-1-118 1-9 6-10z" fill="#050304"/>
<path transform="translate(896,500)" d="m0 0 5 1-1 6-6 6-1 4-1 30v62l-4 2h-8l-2-4 7-2v-68l1-19 2-9 7-8z" fill="#050304"/>
<path transform="translate(654,655)" d="m0 0h7l6 3 4 4 3 11v9l-3 11-5 5-2 1h-9l-1-1z" fill="#F7DFBE"/>
<path transform="translate(432,424)" d="m0 0h14l11 2 5 4v2l-4-1-18-1-2 91h-2v18l-3 4-1-75z" fill="#FCF7EF"/>
<path transform="translate(440,429)" d="m0 0 15 1 3 3-12 2-1 2-1 126-5 1-1-1 1-133z" fill="#050304"/>
<path transform="translate(222,600)" d="m0 0 5 1 1 1v14l-1 24-3 1h-92l-21-1-1-3 111-2z" fill="#050304"/>
<path transform="translate(1515,498)" d="m0 0 2 1 1 9h1l1 9v38l-2 12-6 12-9 10-13 8-11 4-5 1h-12l1-5 15-2 10-4 9-6 5-4 6-10 3-8 2-14 1-1v-44z" fill="#FCF5EB"/>
<path transform="translate(297,471)" d="m0 0 2 4v12h5l3 2 5 23-1 7-3 2h-3v-3l-10-1h-9l2-12 6-28z" fill="#F7DFBF"/>
<path transform="translate(1054,782)" d="m0 0h17l12 3 6 3 4 5 1 7 4 1-1 5-3 3h-3l1-8-5-2-2-1 1 2v8l-1 5-1 4h-2l-1-11-5-8-7-6-4-2h-15l-9 6-5 7-1 9v3h-2l-1-13 4-8 7-7 8-4z" fill="#F7DFBF"/>
<path transform="translate(1186,220)" d="m0 0h11l5 3 3 5 1 15-1 3-4-1-9-6-11-3h-8l-9 3-10 6 2-5 9-10 17-9z" fill="#F2DBBA"/>
<path transform="translate(1014,443)" d="m0 0h9l8 3 5 5 5 7-1 2-5-6v-2l-4 1-5-3h-7l-7 3-3 3-1 8 5 14 6 8 4 5 1 4h2l13 13 2 3v13h-3l-8-13-10-15-10-13-7-15-2-10 4-9z" fill="#FCF5EB"/>
<path transform="translate(1802,555)" d="m0 0h2l1 2v12l-4 11-6 8-9 9-14 7-5 1h-21l-5-2v-3l-9-4 3-1 7 2 8 1h12l12-3 10-7 8-9 4-8 3-14 2-1v5h2l1-2h-2z" fill="#FCF6EE"/>
<path transform="translate(735,420)" d="m0 0h2l-1 163-2 3v-12h-2v26l-3-1v-34l1-42 3-2v-92l1-8z" fill="#F9EBD7"/>
<path transform="translate(960,781)" d="m0 0h34l6 3 2 3h-18l-10 4-6 8-2 4v17l2 10-1 4-5-4-1-15 2-6-4-2-4-11 1-8 3-6z" fill="#F7DFBE"/>
<path transform="translate(1950,406)" d="m0 0 5 2-2 5-5 5-3 6-1 33-1 134h-1l-1-56 1-53h-2v10h-1v-27l-1 12h-1v-52l2-7 9-10z" fill="#FBF0E2"/>
<path transform="translate(657,403)" d="m0 0 4 4 1-2h2l10 16 11 20 8 14 8 12 4 7 2 3 2 10v6h-2l-8-14-10-18-8-13-15-28-9-14z" fill="#FCF5EB"/>
<path transform="translate(1583,484)" d="m0 0 3 2 1 96-4-4-3-10v-75l1-8z" fill="#050304"/>
<path transform="translate(585,469)" d="m0 0h1v64l1 41 4 7 1 3h-2l4 7-4-2-7-10-3-6v-80h1v-19l2 4 1 30z" fill="#FDFCFA"/>
<path transform="translate(273,545)" d="m0 0h26l19 1 2 5-1 1h-42l-3 19v10l2 5 1 3h-4l-6-7-1-2v-13l4-17z" fill="#FCF6EE"/>
<path transform="translate(652,487)" d="m0 0h2l3 5 1 6 1 85-5-5-2-6-1-83z" fill="#050304"/>
<path transform="translate(797,483)" d="m0 0 3 4h2l1 38 3 21 5 13 6 9 12 6h-13l-6-4-6-9-5-16-2-14z" fill="#FBF4E9"/>
<path transform="translate(1872,511)" d="m0 0h28v3l-12 2-14 1-1 3v68l-4-2-2-3v-70z" fill="#050304"/>
<path transform="translate(1807,551)" d="m0 0 4 4v12l-4 13-6 11-8 8-12 7-11 3h-20l-11-3-2-1v-2l9 1h21l10-3 10-6 10-10 6-12 2-8 1-13z" fill="#050304"/>
<path transform="translate(1290,543)" d="m0 0h43l3 2-1 4-40 1-2 6-1 8v14l4 7v6l-4-2-6-8-2-6 1-15 3-15z" fill="#FCF6EE"/>
<path transform="translate(1441,459)" d="m0 0h1l1 17h1l1 16 1 54 3 12 3 4v2l6 2 4 5h-9l-7-6-5-10-1-8h2v-3l-2-2v-60z" fill="#FEFEFD"/>
<path transform="translate(728,223)" d="m0 0 11 1 8 4 6 10 4 9 5 5 6 10 5 6 9 7-4 1-9-5-5-4-5-9-6-12-9-10-4-4-13-2-8 2-7 4-9 8-1-2 6-9 7-6 7-3z" fill="#F7E1C3"/>
<path transform="translate(1216,177)" d="m0 0h6l5 5 1 9-4 4h-2l-1 3-7 6-4 8h-2l-2-12-1-3v-9l2-7 4-3z" fill="#F7DFBE"/>
<path transform="translate(1514,422)" d="m0 0h1v11h2l1 3 1 14v58l-1 22h-1l-1-31-1-1v50h-1l-1-6v-105z" fill="#F7DFBE"/>
<path transform="translate(1876,407)" d="m0 0h3l2 2h2v2l-9 6-4 5-2 5h-2v16h-2v4l2-2v32l8 1v2l3 1h-17v-55l3-7 5-4h4l1-5z" fill="#FDFAF5"/>
<path transform="translate(1445,424)" d="m0 0h1v122h-1l-1-54-1-14-2 4v61l2-5h1l-1 7-1 2-3-1v-99l1-16 2-3 2 2z" fill="#F7DFBE"/>
<path transform="translate(1021,60)" d="m0 0h9l7 4 3 6v12l-1 7h-3l-1-11-3-4-3-1h-9l-6 4-5 12-1 6-2-1v-10l3-14 3-6 5-3z" fill="#FDFBF7"/>
<path transform="translate(1027,850)" d="m0 0 8 2 22 1 3 2-2 10-5 4-8 1-10-4-5-6-3-6z" fill="#F7DFBE"/>
<path transform="translate(995,850)" d="m0 0h13l7 2 1 4-6 8-9 7-7 1-4-4-1-10 2-6z" fill="#F7DFBE"/>
<path transform="translate(1208,166)" d="m0 0h3l1 4-1 3-5 1-3 9-2 5v12l3 10 4 2v9h-3l-4-5-6-4-6-9 1-9 5-10 7-10 3-6z" fill="#F7DFBF"/>
<path transform="translate(438,480)" d="m0 0h1v83h6l6 3 8-2-1 3-7 3-13 2h-6v-33h3v-14l1-4h2z" fill="#F8E4C8"/>
<path transform="translate(1727,506)" d="m0 0h1l1 6 2-1 3 26 5 15 6 8v3l3 1 4 6v2l-5-1-9-8-7-11-4-13-3-18v-8l2-3z" fill="#FCF6EE"/>
<path transform="translate(1069,507)" d="m0 0 6 1v3h-2l-3 3-6 32-2 6 3 7 2 5h2l8 12-3 2-4-2-7-11-8-14v-5l3-4 3-11 2-18 3-5z" fill="#FBF3E7"/>
<path transform="translate(786,199)" d="m0 0h9l-2 3 9-1v-2l6 2-2 5h-18l-9 2-6 4-5 7-3 10-1 20h-3l-2-5v-15l2-9 6-10 8-7z" fill="#F7DFBE"/>
<path transform="translate(1861,522)" d="m0 0h1l1 11 2-9h1l1 56 3 6 2 5v4l3 3-4-1-8-9-3-6v-47z" fill="#FDF9F4"/>
<path transform="translate(881,523)" d="m0 0h3 1l1 82h-5l-1-3 1-3-1-5v-69z" fill="#FDFBF7"/>
<path transform="translate(161,389)" d="m0 0h6l-2 14v195h-2l-2-6 1-1v-183h-1l-1 27-2-1v-39z" fill="#F7DFBE"/>
<path transform="translate(1014,47)" d="m0 0h14l10 5 8 9 3 8v9h-2l-4-13-5-7-9-5-9-1-10 2-7 5-5 10v10l3 10-3-1-4-8-1-4v-7l3-9 8-8z" fill="#F7DFBF"/>
<path transform="translate(1671,407)" d="m0 0 4 1 2 2-8 7-3 6-1 8-1 41h-1l-1 7h-1l-1-17-2-2v-35l4-10 5-6h3z" fill="#FAECD9"/>
<path transform="translate(1883,410)" d="m0 0h3l-1 5-7 6-5 10-1 43-1 2h-4v-49l4-8 8-7z" fill="#050304"/>
<path transform="translate(863,589)" d="m0 0 6 1 5 4-1 3-3-2-1 2v-2l-6 1-17 8-9 2h-22v-2l-3-1v-2l-2-2h25l12-3z" fill="#FCF5EB"/>
<path transform="translate(1021,78)" d="m0 0 1 2-1 34 12 2v1l-23 3-14 1h-10l2-4 1-1 25-2 3-1-1-1-1-8v-13l2-10z" fill="#F7E2C5"/>
<path transform="translate(1174,254)" d="m0 0h14l2 1v5l-5-1-7-1-14 3-15 9-4 5h-2l-2 5-5 6-2 1h-7l2-4 9-10 11-11 13-5z" fill="#050304"/>
<path transform="translate(1937,528)" d="m0 0h1l1 18 2-2 1 15 1 32 5 8 6 7v2h-6l-8-9-3-6z" fill="#FCF6EC"/>
<path transform="translate(1022,862)" d="m0 0h1v7l-5 10-4 6 1 9 6 12h2l7-13h3l-2 11-6 10-4 2-3-3-7-16-3-10 5-12 7-9z" fill="#050304"/>
<path transform="translate(1085,501)" d="m0 0 3 1 1 11-2 2-13 3h-2v9l-3 24-3 7-4-2-1-5 3-10 5-27 7-3 8-2z" fill="#050304"/>
<path transform="translate(1590,405)" d="m0 0h2v2h2l14 25 12 22 3 4-1 3-4 1-4-5-14-27-12-21 1-3 2 2z" fill="#FBF3E7"/>
<path transform="translate(1960,611)" d="m0 0 5 5v4l-3 1h-14l-41-3-9-1-2-4h19l45 3z" fill="#050304"/>
<path transform="translate(580,449)" d="m0 0h3l1 5 3-4v88h-1l-1-7v-19l-2-4-1-25v37h-1l-1-27z" fill="#F7DFBE"/>
<path transform="translate(879,415)" d="m0 0 5 2 1 5-1 30-2 21-5 1v-16l1-21v-19z" fill="#050304"/>
<path transform="translate(1802,413)" d="m0 0 5 1v43l-2 14-2 2h-4l1-13 1-11z" fill="#050304"/>
<path transform="translate(1515,498)" d="m0 0 2 1 1 9h1l1 9v38l-1 7h-3l-1 2-2-6v-9l1-1v-44z" fill="#F7E1C2"/>
<path transform="translate(1827,605)" d="m0 0h13l33 2 12 1 1 4-1 1-23-1-40-2v-4z" fill="#050304"/>
<path transform="translate(1659,476)" d="m0 0h1l1 5 2-1 1 25v46h-2l-2 2-1-4z" fill="#F8E5CB"/>
<path transform="translate(1299,592)" d="m0 0 6 2v5l-6 2h-38l-6-2v-4l42-1z" fill="#FCF7EF"/>
<path transform="translate(994,509)" d="m0 0 3 1 4 9-1 3v-2h-2v-2l-5 1-5 10-1 4v15l5 11 2 4-4-2-6-7-3-6-1-5v-9l5-14 7-9z" fill="#FBF3E8"/>
<path transform="translate(1478,249)" d="m0 0h7l5 5 1 3v8l-4 4-8-1-5-3-1-2v-8z" fill="#050304"/>
<path transform="translate(1404,597)" d="m0 0 3 3v5l-69-1v-4l63-1z" fill="#050304"/>
<path transform="translate(324,594)" d="m0 0h52l-1 4-10 1-5 1h-41l4-2-1-3z" fill="#FCF8F2"/>
<path transform="translate(596,600)" d="m0 0 12 1v4h-70l-3-2 7-2z" fill="#050304"/>
<path transform="translate(891,496)" d="m0 0h2l2 4-4 6-3 5-1 7-1 19h-1l-1-12h-3v68 3h-2v-80l3-9z" fill="#FBF5EA"/>
<path transform="translate(941,786)" d="m0 0h7v7l-6 9-9-2-12-7-3-4 18-1z" fill="#F7DFBE"/>
<path transform="translate(1831,701)" d="m0 0h49l82 1v1l-24 1h-77l-45-1v-1z" fill="#FEFEFD"/>
<path transform="translate(1032,574)" d="m0 0 3 1 1 5-4 5-9 6-11 3h-23l-1-3-2-2 23-1 10-3 6-4z" fill="#FBF2E6"/>
<path transform="translate(1096,786)" d="m0 0 6 1 28 2v2l-12 6-13 4-3-1-4-10z" fill="#F7DFBF"/>
<path transform="translate(1187,654)" d="m0 0 7 1 5 8v7l-6 4h-9l-1-1v-14l1-4z" fill="#F7DFBF"/>
<path transform="translate(1019,449)" d="m0 0h7l6 4-1 2h-8l-8 5-2 3 1 7 4 9 6 8-2 3-7-7-5-10-3-9 1-8 5-5z" fill="#050304"/>
<path transform="translate(297,471)" d="m0 0 2 4v9l-4 26-2 7h-7l2-12 6-28z" fill="#050304"/>
<path transform="translate(1319,240)" d="m0 0 6 1 6 7 1 6-2 6-6 5-3 1h-8l-6-4-1-2v-8l2-7h4l1 8 3 3-5-1 1 4 4 2 7-1 3-3v-9l-5-6z" fill="#050304"/>
<path transform="translate(1823,600)" d="m0 0h20l18 1 2 1 14 1 4 4h-21l-20-1-15-2-3-3z" fill="#FBF1E2"/>
<path transform="translate(224,546)" d="m0 0 5 1v27l-2 20-4 2-1-1 1-30z" fill="#050304"/>
<path transform="translate(718,242)" d="m0 0 2 1-2 4 1 7 4 7 3 2 7-1 3-3-1-6v-8l5 2 3 8-2 6-5 5-5 2-7-1-6-4-3-5-2-6 1-7z" fill="#050304"/>
<path transform="translate(1102,182)" d="m0 0 2 2-9 27-4 6-4 2-9-4 5-5 8-9 10-17z" fill="#F7DFBE"/>
<path transform="translate(59,512)" d="m0 0 6 1 3 1 5-1-1 5-4 7 8-1-1 5-8 2-7 1-2-3v-16z" fill="#050304"/>
<path transform="translate(1574,548)" d="m0 0 5 3 2 17 3 10 4 7 1 8-4-2-8-11-3-8z" fill="#FCF7EF"/>
<path transform="translate(285,599)" d="m0 0h5l1 5-4 1h-53l-2-1v-3l50-1z" fill="#050304"/>
<path transform="translate(1313,476)" d="m0 0 3 3-1 10-6 26-1 1h-5l-1-3 6-25 3-10z" fill="#050304"/>
<path transform="translate(1596,598)" d="m0 0 5 2 2 2v3h-58v-3l2-1 48-1z" fill="#050304"/>
<path transform="translate(1091,591)" d="m0 0 4 1 1 5-1 1h-24l-26-1-1-5h46z" fill="#050304"/>
<path transform="translate(668,594)" d="m0 0h2l3 7v4h-58v-4h54z" fill="#050304"/>
<path transform="translate(1939,434)" d="m0 0 2 1 1 7-1 22 2-1v128h-1l-1-56 1-53h-2v10h-1z" fill="#F7DFBE"/>
<path transform="translate(1053,437)" d="m0 0 4 1v32l-1 9-1 1h-5l2-42z" fill="#050304"/>
<path transform="translate(1032,768)" d="m0 0 2 2-7 11-3 6-5-5-9-10 1-3z" fill="#F7DFBE"/>
<path transform="translate(1151,280)" d="m0 0h15l9 3 3 2v2l-25 1-5 2h-6l1-5z" fill="#F7DFBE"/>
<path transform="translate(1021,60)" d="m0 0h9l7 4 3 6v12l-1 7h-3l-1-11-3-4-11-2v-1l7-1v-6l-3-1h-7l-4 1 3-3z" fill="#F7E1C3"/>
<path transform="translate(1208,271)" d="m0 0 3 1 1 6 8 2 6 3 12 2v2h-19l-22-1v-2l6-2 6-4z" fill="#F7DFBE"/>
<path transform="translate(650,529)" d="m0 0h1l1 40 3 9 3 5 1 3-2 1 2 4-4-2-7-10-1-2v-6l2-1v-4h-2l-1 3 1-20h3z" fill="#FCF7EE"/>
<path transform="translate(666,406)" d="m0 0 5 5 7 11 6 11 11 19 7 14-1 2-7-10-8-13-6-11-11-20-3-5z" fill="#050304"/>
<path transform="translate(554,595)" d="m0 0h41v1l-9 1v2l-49 2 2-4v-1z" fill="#FDFDFC"/>
<path transform="translate(1861,506)" d="m0 0h42v5h-37l-1 4h-3-1z" fill="#FEFEFD"/>
<path transform="translate(735,420)" d="m0 0h2l-1 4-1 120-3 1-1 6h-1v-28l3-2v-92l1-8z" fill="#FDFDFC"/>
<path transform="translate(833,276)" d="m0 0 5 1 13 7v2h-33l-1-2z" fill="#F7DFBE"/>
<path transform="translate(562,248)" d="m0 0 7 1 5 6 2 9-4-1-5-8-5-1-2 13-5-1-1-2v-8l3-6z" fill="#050304"/>
<path transform="translate(995,517)" d="m0 0 4 1-7 15-1 12 2 8 1 5-4-2-4-8v-15l4-11z" fill="#050304"/>
<path transform="translate(866,594)" d="m0 0 2 2-9 6-14 6-11 2h-8l-11-2-3-3h25l11-3z" fill="#050304"/>
<path transform="translate(241,595)" d="m0 0h43l1 4-10 1h-34l1-3z" fill="#FDFBF8"/>
<path transform="translate(1894,607)" d="m0 0h23l17 1 3 2-7 2-10 1h-11l-13-1v-3z" fill="#FCF9F3"/>
<path transform="translate(1305,595)" d="m0 0 3 3 1 6h-54v-3l6-1h38l5-1z" fill="#050304"/>
<path transform="translate(660,591)" d="m0 0 5 1v2h2l1 6h-42l2-1v-2l-4-1 36-1 2 3z" fill="#FDFDFC"/>
<path transform="translate(1861,522)" d="m0 0h1l1 11 2-9h1v48h-1l-2-7v-17l-2 17h-1v-30z" fill="#FDFDFC"/>
<path transform="translate(1314,223)" d="m0 0h9l5 2v2h-2v2l-14 1-10 4-7 6-1 2h-2l1-5 2-4 10-7z" fill="#F7E0C0"/>
<path transform="translate(1444,543)" d="m0 0 2 3 3 12 3 4v2l6 2 4 5h-9l-7-6-5-10-1-8h2z" fill="#FCF8F1"/>
<path transform="translate(1660,445)" d="m0 0h1l1 25h1v10l-1 1-1 26h-1l-1 42h-1v-89h1z" fill="#FEFEFD"/>
<path transform="translate(495,693)" d="m0 0h7l3 3-1 8-3 4-7-1-4-7 1-4z" fill="#050304"/>
<path transform="translate(222,556)" d="m0 0h1v31l-1 7h-2v5l-3-1v-18l2-21h2z" fill="#FAEEDD"/>
<path transform="translate(585,553)" d="m0 0h1l1 21 4 7 1 3h-2l4 7-4-2-7-10-3-6v-14l2-2 2 2z" fill="#FBF4E9"/>
<path transform="translate(1557,594)" d="m0 0 25 1 13 2v3h-41v-1l10-1-12-2v-1z" fill="#FDFBF6"/>
<path transform="translate(161,389)" d="m0 0h6l-2 14-1 2h-2l-1 3-1 27-2-1v-39z" fill="#F7DFBE"/>
<path transform="translate(1978,511)" d="m0 0h5l4 7-1 7-5 5h-5l-2-3 1-3h6v-5h-8l2-6z" fill="#050304"/>
<path transform="translate(1655,733)" d="m0 0 9 9h-28v-2h-8v-2l2-1 24-1z" fill="#F7E0C0"/>
<path transform="translate(1014,114)" d="m0 0 1 2 4 1 2-2 12 1v1l-23 3-14 1h-10l2-4 1-1z" fill="#F7DFBF"/>
<path transform="translate(1668,686)" d="m0 0h13l-3 2 1 1 13 1v2l-16 3-11 6 1-6z" fill="#F7E0C1"/>
<path transform="translate(437,559)" d="m0 0 2 4h6l6 3 8-2-1 3-7 3-5 1h-13v-11z" fill="#FDF9F4"/>
<path transform="translate(955,223)" d="m0 0 4 2 8 9 14 10 10 4 6 1-1 2-8 1-15-8-10-9-6-8z" fill="#F8E7CF"/>
<path transform="translate(581,694)" d="m0 0h9l1 1v9l-2 3-5 1-5-3-1-2v-7z" fill="#050304"/>
<path transform="translate(1006,51)" d="m0 0 4 3-7 5-5 10v10l3 10-3-1-4-8-1-4v-7l3-9 8-8z" fill="#F7DFBE"/>
<path transform="translate(226,594)" d="m0 0h34v1l-16 1 2 3-15 2v4l-3 3-2-7-4-1-1-5z" fill="#FBF1E3"/>
<path transform="translate(160,401)" d="m0 0 3 4v103h-1l-1-74h-1z" fill="#FEFEFD"/>
<path transform="translate(858,154)" d="m0 0 5 1 3 3v7h-3v-2l-2 1v3l2 1 1-2v2h3v6l-5-2-3-3-6-5 2-6z" fill="#100D0C"/>
<path transform="translate(1593,405)" d="m0 0 5 5 12 21 11 19 6 11-1 3-9-14-13-24-8-13-3-6z" fill="#050304"/>
<path transform="translate(841,183)" d="m0 0 2 2 3 15-4 8-4-1-2-3 1-4 3-5v-4l-10 3v-2h2l1-3 7-2z" fill="#050304"/>
<path transform="translate(454,653)" d="m0 0h7l8 7-1 2-6-5-1 1v6l1 4 5 2 2 3-4-1-9-5-4-4v-8z" fill="#FCF7EF"/>
<path transform="translate(1515,498)" d="m0 0 2 1 1 9h1v25l-2 3-1 15h-1l-1-17v-30z" fill="#FEFEFD"/>
<path transform="translate(654,478)" d="m0 0h2l13 24 4 7-1 3-8-13-7-1-2-8-1-1z" fill="#FCF5EC"/>
<path transform="translate(1058,545)" d="m0 0 1 2-1 4h2l1 5 3 1 3 5v2h2l8 12-3 2-4-2-7-11-7-12v-6z" fill="#FCF7F0"/>
<path transform="translate(1724,482)" d="m0 0 2 4 1 4 1-6h1l1 28-2 2-1-4-2 4-1-1-1-9v-15z" fill="#FDFAF6"/>
<path transform="translate(1800,426)" d="m0 0h1v34h-2v7l-4-4v-25h2l2 6z" fill="#FDFAF6"/>
<path transform="translate(1167,264)" d="m0 0 8 2 8 7 6 7h-3l-9-6-7-4h-10l-6 2v-2l9-5z" fill="#050304"/>
<path transform="translate(1348,595)" d="m0 0h46v1h-7v2l6-1 2 1 1-2v2l4-1 2 2h-41l-2-2-11-1z" fill="#FEFEFD"/>
<path transform="translate(1937,528)" d="m0 0h1l1 18 2-2 1 15v16h-1v-7h-2v8l-2 1z" fill="#FAF0E0"/>
<path transform="translate(797,483)" d="m0 0 3 4h2l-1 36-2-2-2 2z" fill="#FEFEFD"/>
<path transform="translate(907,666)" d="m0 0h2l5 18-1 1h-9l-2-1 1-7z" fill="#F7DFBE"/>
<path transform="translate(943,185)" d="m0 0 2 4 5 26-1 5-4-3-3-15v-15z" fill="#F7E1C2"/>
<path transform="translate(786,199)" d="m0 0h9l-2 3 9-1v-2l6 2-2 5h-24v-2l-2-1 3-1v-2z" fill="#FDFAF5"/>
<path transform="translate(1663,433)" d="m0 0h1v39h-1l-1 7h-1l-1-17-2-2v-21h4z" fill="#F7DFBE"/>
<path transform="translate(1583,481)" d="m0 0h2l8 13 4 7-1 4-3-5v-2h-6l-1-2-1-10-4-1v8l-1 7h-1l-1-16h2v-2z" fill="#FCF7EF"/>
<path transform="translate(1079,237)" d="m0 0 2 1-7 7-15 9-7 2-7-1-2-4h10l11-4 14-9z" fill="#F9EAD4"/>
<path transform="translate(1304,669)" d="m0 0 3 4 3 8v3l-2 1h-9l-2-2z" fill="#FBF2E4"/>
<path transform="translate(432,539)" d="m0 0 2 2 3-2 1 20-4 2-1 10h5v1h-6z" fill="#F7DFBE"/>
<path transform="translate(761,256)" d="m0 0 4 1 6 9 11 9-4 1-9-5-5-4-4-6z" fill="#F7DFBE"/>
<path transform="translate(1611,442)" d="m0 0 3 1 7 12 2 3-1 3-4 1-4-5-5-10 1-3z" fill="#FBF4EA"/>
<path transform="translate(879,516)" d="m0 0 1 2h2l2 4-1 3h-2v68 3h-2z" fill="#F7DFBE"/>
<path transform="translate(722,224)" d="m0 0 4 1h-3l1 3h-2l-1 3-8 4-10 9-1-2 6-9 7-6z" fill="#F7DFBF"/>
<path transform="translate(298,466)" d="m0 0 5 5 3 13v5l-7-2-2-20z" fill="#F9ECD8"/>
<path transform="translate(1516,418)" d="m0 0 4 1 2-1-2 21-1 11h-1l-1-17h-2v-12z" fill="#FCF7F0"/>
<path transform="translate(1443,414)" d="m0 0 3 1h-2l3 3v5l-1 1-1 7-3-2-1 2-1 16h-1v-25z" fill="#FCF7F0"/>
<path transform="translate(1843,727)" d="m0 0h14l-1 7v10l2 7-3-3-3-6v-12l-20-1v-1z" fill="#1F1A18"/>
<path transform="translate(1032,574)" d="m0 0 3 1 1 5-2 2h-2l-8 6-4 2h-5l2-4 8-5z" fill="#F7DFBF"/>
<path transform="translate(1048,436)" d="m0 0 3 1 1 9v9l-1 9-2-3v-9l-1-1v11l-2-1v-12z" fill="#FBF0E2"/>
<path transform="translate(1187,204)" d="m0 0 2 3v3l4 1 2 2-9 3-9 2 2-4z" fill="#F7DFBE"/>
<path transform="translate(385,676)" d="m0 0 4 1 1 4-5 8-4 1-2-3 1-6z" fill="#F7E0C1"/>
<path transform="translate(1029,870)" d="m0 0 3 3 4 7v9h-3l-5-10-2-3 1-4z" fill="#050304"/>
<path transform="translate(650,529)" d="m0 0h1v40l-2-3h-2l-1 3 1-20h3z" fill="#FEFEFD"/>
<path transform="translate(731,573)" d="m0 0 3 1 1 12v17h-5l3-1-2-11z" fill="#F8E7CE"/>
<path transform="translate(1188,157)" d="m0 0 5 2 1 5-7 8-5 5h-2l1-5 6-7 1-4z" fill="#050304"/>
<path transform="translate(1240,582)" d="m0 0h1v13l-3 3h-2v-3h-32v-1h32v-7l3-1z" fill="#FEFEFD"/>
<path transform="translate(885,274)" d="m0 0 6 1 8 4 1 2h-14l-8 1 6-7z" fill="#050304"/>
<path transform="translate(1478,253)" d="m0 0 5 1 2 7-1 4-5 1-2-2-1-7z" fill="#F7DFBE"/>
<path transform="translate(1014,47)" d="m0 0h14v4l-2-1-1 1-12 2h-5l-1-3z" fill="#FAEFE0"/>
<path transform="translate(852,224)" d="m0 0 2 2h12l5 3-3 1-1-1-10 1-10 6-2-1 3-1 1-7z" fill="#050304"/>
<path transform="translate(1087,823)" d="m0 0 9 1 1 1v10l-4 1-2-2v-7h-5z" fill="#050304"/>
<path transform="translate(1009,70)" d="m0 0h3l1 9-4 10-1 6-2-1v-10z" fill="#F7E0C1"/>
<path transform="translate(1661,530)" d="m0 0h1l1 10h1v11h-2l-2 2-1-4v-18z" fill="#F7DFBE"/>
<path transform="translate(642,269)" d="m0 0h7l6 4v3h-9l-5-2z" fill="#050304"/>
<path transform="translate(1669,686)" d="m0 0h12l-3 2 1 1 13 1v2h-12l-8 1-3-2z" fill="#FEFEFD"/>
<path transform="translate(1590,405)" d="m0 0h2v2h2l6 12h-2l-2 4-8-14 1-3 2 2z" fill="#FBF2E4"/>
<path transform="translate(1069,507)" d="m0 0 6 1v3h-2l-3 3-2 4v-3l-3 3-1 7h-1v-12l3-5z" fill="#F7E1C3"/>
<path transform="translate(1863,546)" d="m0 0 1 4v15l1 2v6l-3-1-1 10h-1v-17l2-17z" fill="#F7DFBE"/>
<path transform="translate(1007,809)" d="m0 0h2l-1 5-3 2h-14l-2-1v-2l17-3z" fill="#050304"/>
<path transform="translate(1659,426)" d="m0 0h1l1 6h3l-1 36h-1l-1-25-1-4h-2z" fill="#FEFEFD"/>
<path transform="translate(732,521)" d="m0 0h1l1 13h1v10l-3 1-1 6h-1v-28z" fill="#FEFEFD"/>
<path transform="translate(1866,427)" d="m0 0h1v49l6-1v2h-7l-1-30-2 1v-7l1 2h2z" fill="#F7E0C0"/>
<path transform="translate(1658,677)" d="m0 0 7 4v5l-4 1-7-5 1-4z" fill="#F7DFBE"/>
<path transform="translate(1314,223)" d="m0 0h9l5 2v2h-2v2l-5-1h-12z" fill="#FCF7EF"/>
<path transform="translate(989,116)" d="m0 0h16l-1 3h-8v2h-10l2-4z" fill="#F9EAD6"/>
<path transform="translate(950,795)" d="m0 0 3 3 1 2v6l-9-1 1-4z" fill="#F7DFBE"/>
<path transform="translate(1019,92)" d="m0 0h1l1 22-2 4-4-2v-2l2-1-1-1v-6l2 1z" fill="#FAEEDE"/>
<path transform="translate(953,820)" d="m0 0h1l1 9-2 4-3 1-2-2 1-7z" fill="#050304"/>
<path transform="translate(786,199)" d="m0 0h9l-3 3v2l-4 2h-6v-2l-2-1 3-1v-2z" fill="#FAEFDE"/>
<path transform="translate(1304,669)" d="m0 0 3 4 1 5-4 2h-4v2h-2l2-6z" fill="#F7DFBF"/>
<path transform="translate(222,556)" d="m0 0h1v11l-1 10-3 1-1-4 1-15h2z" fill="#FEFEFD"/>
<path transform="translate(1938,536)" d="m0 0h4v23h-1l-1-13-1 7h-1z" fill="#FEFEFD"/>
<path transform="translate(645,463)" d="m0 0 3 1 4 7v4h-7z" fill="#FDFAF5"/>
<path transform="translate(962,820)" d="m0 0h4l2 10-1 4-5-4z" fill="#F9E9D3"/>
<path transform="translate(1942,442)" d="m0 0h1v21l-1 11h-1l-1-16 1-15z" fill="#FEFEFD"/>
<path transform="translate(1648,738)" d="m0 0h8l2 4h-19l1-2z" fill="#FDFDFB"/>
<path transform="translate(1862,602)" d="m0 0 15 1 4 4h-9l-11-1z" fill="#FEFEFD"/>
<path transform="translate(1574,548)" d="m0 0 5 3v12l-3-1v-2h-2z" fill="#FEFEFD"/>
<path transform="translate(1658,439)" d="m0 0h4v7h-1l-1 16-2-2z" fill="#F7E2C5"/>
<path transform="translate(977,114)" d="m0 0h5v5l-4 4 1 4-3-1-1-5 1-6z" fill="#F7DFBF"/>
<path transform="translate(891,496)" d="m0 0h2l2 4-4 6-4-1h-3l6-8z" fill="#FBF2E5"/>
<path transform="translate(1628,479)" d="m0 0 3 4 2-1 1 4h2l1 7h-3l-6-11z" fill="#FBF3E7"/>
<path transform="translate(1583,481)" d="m0 0h2l3 6-5-2h-2v8l-1 7h-1l-1-16h2v-2z" fill="#FBF0E2"/>
<path transform="translate(1876,407)" d="m0 0h3l2 2h2v2l-9 5-2-5z" fill="#FCF7F0"/>
<path transform="translate(1014,818)" d="m0 0 4 2 1 5-4 1-5-3 1-4z" fill="#F7DFBE"/>
<path transform="translate(1244,593)" d="m0 0h7l1 3-1 5-7-2z" fill="#FCF7EF"/>
<path transform="translate(655,579)" d="m0 0 3 3 1 4-2 1 2 4-4-2-4-5 2-4z" fill="#F9EBD7"/>
<path transform="translate(1211,185)" d="m0 0h5l5 3-2 4-5 5h-2l2-5 1-4-4-2z" fill="#050304"/>
<path transform="translate(1630,737)" d="m0 0h12v2h-2l-1 3h-3v-2h-8v-2z" fill="#F9EAD4"/>
<path transform="translate(1382,662)" d="m0 0h1l2 12-1 2-4-2-1-5 2-1z" fill="#FCF9F3"/>
<path transform="translate(1574,560)" d="m0 0 4 1v9l-4 2z" fill="#F8E3C7"/>
<path transform="translate(1575,463)" d="m0 0 3 3 2 4-1 5-4-1z" fill="#FCF9F3"/>
<path transform="translate(488,416)" d="m0 0 7 6 6 4 1 5-2 1-7-9-5-5z" fill="#FBF2E6"/>
<path transform="translate(791,198)" d="m0 0h13l-2 1v2l-10 2-3-2 3-1-3-1z" fill="#F7DFBE"/>
<path transform="translate(1128,665)" d="m0 0 5 2 7 1-4 3h-7l-1-1z" fill="#FCF8F2"/>
<path transform="translate(1679,718)" d="m0 0 5 1 1 5-3 1-4-3z" fill="#050304"/>
<path transform="translate(1676,700)" d="m0 0 5 1 2 5-6 1-2-5z" fill="#FCF7EF"/>
<path transform="translate(301,480)" d="m0 0 3 1v3h2v5l-7-2 1-4z" fill="#FDFBF7"/>
<path transform="translate(1671,407)" d="m0 0 4 1 2 2-3 3-7 1 1-5h2z" fill="#FCF8F2"/>
<path transform="translate(1079,237)" d="m0 0 2 1-7 7-6 3-2-2 12-8z" fill="#F7E3C6"/>
<path transform="translate(730,573)" d="m0 0h1l1 27-3-1z" fill="#FEFEFD"/>
<path transform="translate(726,224)" d="m0 0 5 1-2 4-7 1 1-5z" fill="#FDFAF5"/>
<path transform="translate(1069,507)" d="m0 0 6 1v3h-2l-1 2-6 1 2-3v-3z" fill="#FCF8F1"/>
<path transform="translate(1615,447)" d="m0 0 3 3 2 5-3 3-4-7 1-2z" fill="#F8E3C7"/>
<path transform="translate(1189,812)" d="m0 0 2 1v3l-2 2h-6v-4z" fill="#FEFEFD"/>
<path transform="translate(1727,506)" d="m0 0h1v9l-1 8-3-2v-8l2-3z" fill="#F7DFBE"/>
<path transform="translate(183,727)" d="m0 0 7 1-1 9-2-1-4-7z" fill="#050304"/>
<path transform="translate(1875,407)" d="m0 0m-2 1 2 1-2 4-1 3-5 1-3 2 2-4z" fill="#F9E8D1"/>
<path transform="translate(943,185)" d="m0 0 2 4 1 10-2-4-1 7h-1v-15z" fill="#F7DFBF"/>
<path transform="translate(1900,748)" d="m0 0h6l-3 3-7 5-2-1z" fill="#1C1816"/>
<path transform="translate(1254,580)" d="m0 0v3l-4 5-5 3 1-5 2-2 4-2z" fill="#FBF1E2"/>
<path transform="translate(1063,116)" d="m0 0 5 1 1 4-3 2-3-2z" fill="#F7DFBE"/>
<path transform="translate(756,272)" d="m0 0 8 5v2l4 2-5-1-8-5z" fill="#050304"/>
<path transform="translate(1619,455)" d="m0 0 3 1 1 5-5 1-2-5z" fill="#FCF8F1"/>
<path transform="translate(594,404)" d="m0 0 2 2-4 5-1 4-2-2-4 2 6-7z" fill="#F9E8D2"/>
<path transform="translate(943,191)" d="m0 0 2 4 1 10-2 1-1-4z" fill="#FEFEFD"/>
<path transform="translate(434,525)" d="m0 0 2 2v12l-3 4z" fill="#FEFEFD"/>
<path transform="translate(162,389)" d="m0 0h5l-1 6-3 1v-3l-2-1z" fill="#FCF7EF"/>
<path transform="translate(955,223)" d="m0 0 4 2 7 8-1 2-7-6z" fill="#F9E9D3"/>
<path transform="translate(1020,47)" d="m0 0h8v4l-2-1-1 1h-6z" fill="#FCF9F3"/>
<path transform="translate(1064,247)" d="m0 0h4v2l-5 3h-5l4-4z" fill="#FBF0E2"/>
<path transform="translate(960,230)" d="m0 0 6 4 5 3-4 2-7-7z" fill="#F7DFBE"/>
</svg>
